<svg width="20" height="20" viewBox="0 0 20 20" fill="none" xmlns="http://www.w3.org/2000/svg">
<path d="M4.009 4.5C4.009 3.70888 4.2436 2.93552 4.68312 2.27772C5.12265 1.61992 5.74736 1.10723 6.47827 0.804484C7.20917 0.501733 8.01344 0.42252 8.78936 0.576861C9.56528 0.731202 10.278 1.11216 10.8374 1.67157C11.3968 2.23098 11.7778 2.94372 11.9321 3.71964C12.0865 4.49556 12.0073 5.29983 11.7045 6.03074C11.4018 6.76164 10.8891 7.38635 10.2313 7.82588C9.57348 8.26541 8.80013 8.5 8.009 8.5C6.94813 8.5 5.93072 8.07857 5.18057 7.32843C4.43043 6.57828 4.009 5.56087 4.009 4.5ZM11.1 16.82C10.8351 16.5729 10.6463 16.2553 10.556 15.9045C10.4656 15.5536 10.4774 15.1843 10.59 14.84C10.6995 14.4909 10.9063 14.1803 11.1862 13.9448C11.4661 13.7092 11.8074 13.5583 12.17 13.51L13.42 13.33C13.42 13.33 13.62 13.311 13.68 13.19L14.08 12.39C14.112 12.3321 14.126 12.2659 14.12 12.2C14.1075 12.1436 14.0799 12.0918 14.04 12.05C13.5141 11.5212 12.8822 11.1096 12.1859 10.8425C11.4896 10.5753 10.7447 10.4586 10 10.5H6C1.94 10.5 0.5 13.47 0.5 16.02C0.5 18.3 1.71 19.5 4 19.5H11.59C11.75 19.5 11.852 19.38 11.9 19.12L12.1 17.97C12.1107 17.9211 12.108 17.8701 12.0922 17.8226C12.0763 17.7751 12.0479 17.7327 12.01 17.7L11.1 16.82ZM19.867 15.739C19.9261 15.6821 19.968 15.6096 19.9877 15.5299C20.0074 15.4502 20.0041 15.3666 19.9783 15.2887C19.9524 15.2107 19.9051 15.1417 19.8417 15.0896C19.7783 15.0374 19.7014 15.0043 19.62 14.994L17.628 14.711C17.557 14.7012 17.4895 14.6743 17.4311 14.6327C17.3728 14.591 17.3254 14.5359 17.293 14.472L16.429 12.76C16.3885 12.6815 16.3272 12.6157 16.2518 12.5697C16.1764 12.5238 16.0898 12.4995 16.0015 12.4995C15.9132 12.4995 15.8266 12.5238 15.7512 12.5697C15.6758 12.6157 15.6145 12.6815 15.574 12.76L14.711 14.472C14.6785 14.5359 14.6311 14.5909 14.5728 14.6326C14.5145 14.6742 14.447 14.7011 14.376 14.711L12.384 14.994C12.3023 15.0039 12.2252 15.0369 12.1615 15.089C12.0979 15.1411 12.0504 15.2102 12.0245 15.2882C11.9986 15.3663 11.9954 15.4501 12.0153 15.5299C12.0353 15.6098 12.0775 15.6823 12.137 15.739L13.577 17.113C13.6289 17.162 13.6678 17.2231 13.6903 17.2908C13.7128 17.3585 13.7182 17.4307 13.706 17.501L13.377 19.38C13.3631 19.4671 13.3738 19.5564 13.4078 19.6377C13.4419 19.7191 13.498 19.7893 13.5698 19.8406C13.6416 19.8918 13.7263 19.922 13.8143 19.9277C13.9023 19.9334 13.9902 19.9145 14.068 19.873L15.795 18.985C15.859 18.9519 15.93 18.9347 16.002 18.9347C16.074 18.9347 16.145 18.9519 16.209 18.985L17.937 19.874C18.0148 19.9152 18.1026 19.9339 18.1904 19.9281C18.2783 19.9222 18.3627 19.892 18.4344 19.8408C18.506 19.7896 18.562 19.7195 18.596 19.6383C18.63 19.557 18.6408 19.468 18.627 19.381L18.3 17.5C18.2878 17.4298 18.2932 17.3577 18.3155 17.29C18.3378 17.2223 18.3765 17.1612 18.428 17.112L19.867 15.739Z" fill="#757575"/>
</svg>
